<svg width="28" height="27" viewBox="0 0 28 27" fill="none" xmlns="http://www.w3.org/2000/svg">
<g id="Icon/Outline/shopping-cart">
<path id="Icon" d="M3.5 3.375H5.83333L6.3 5.625M8.16667 14.625H19.8333L24.5 5.625H6.3M8.16667 14.625L6.3 5.625M8.16667 14.625L5.49162 17.2045C4.75667 17.9132 5.27719 19.125 6.31658 19.125H19.8333M19.8333 19.125C18.5447 19.125 17.5 20.1324 17.5 21.375C17.5 22.6176 18.5447 23.625 19.8333 23.625C21.122 23.625 22.1667 22.6176 22.1667 21.375C22.1667 20.1324 21.122 19.125 19.8333 19.125ZM10.5 21.375C10.5 22.6176 9.45533 23.625 8.16667 23.625C6.878 23.625 5.83333 22.6176 5.83333 21.375C5.83333 20.1324 6.878 19.125 8.16667 19.125C9.45533 19.125 10.5 20.1324 10.5 21.375Z" stroke="#2B3674" stroke-width="2" stroke-linecap="round" stroke-linejoin="round"/>
</g>
</svg>
