<svg width="28" height="27" viewBox="0 0 28 27" fill="none" xmlns="http://www.w3.org/2000/svg">
<g id="Icon/Outline/user-group">
<path id="Icon" d="M19.8333 22.5H25.6667V20.25C25.6667 18.386 24.0997 16.875 22.1667 16.875C21.0518 16.875 20.0587 17.3776 19.4177 18.1608M19.8333 22.5H8.16666M19.8333 22.5V20.25C19.8333 19.5117 19.6858 18.8067 19.4177 18.1608M8.16666 22.5H2.33333V20.25C2.33333 18.386 3.90033 16.875 5.83333 16.875C6.9482 16.875 7.94133 17.3776 8.58228 18.1608M8.16666 22.5V20.25C8.16666 19.5117 8.31416 18.8067 8.58228 18.1608M8.58228 18.1608C9.44242 16.0887 11.5439 14.625 14 14.625C16.456 14.625 18.5576 16.0887 19.4177 18.1608M17.5 7.875C17.5 9.73896 15.933 11.25 14 11.25C12.067 11.25 10.5 9.73896 10.5 7.875C10.5 6.01104 12.067 4.5 14 4.5C15.933 4.5 17.5 6.01104 17.5 7.875ZM24.5 11.25C24.5 12.4926 23.4553 13.5 22.1667 13.5C20.878 13.5 19.8333 12.4926 19.8333 11.25C19.8333 10.0074 20.878 9 22.1667 9C23.4553 9 24.5 10.0074 24.5 11.25ZM8.16666 11.25C8.16666 12.4926 7.12199 13.5 5.83333 13.5C4.54466 13.5 3.49999 12.4926 3.49999 11.25C3.49999 10.0074 4.54466 9 5.83333 9C7.12199 9 8.16666 10.0074 8.16666 11.25Z" stroke="#2B3674" stroke-width="2" stroke-linecap="round" stroke-linejoin="round"/>
</g>
</svg>
