<svg width="27" height="27" viewBox="0 0 27 27" fill="none" xmlns="http://www.w3.org/2000/svg">
<g id="Icon/Outline/users">
<path id="Icon" d="M13.5 4.89845C14.3246 3.96422 15.531 3.375 16.875 3.375C19.3603 3.375 21.375 5.38972 21.375 7.875C21.375 10.3603 19.3603 12.375 16.875 12.375C15.531 12.375 14.3246 11.7858 13.5 10.8516M16.875 23.625H3.375V22.5C3.375 18.7721 6.39708 15.75 10.125 15.75C13.8529 15.75 16.875 18.7721 16.875 22.5V23.625ZM16.875 23.625H23.625V22.5C23.625 18.7721 20.6029 15.75 16.875 15.75C15.6455 15.75 14.4928 16.0787 13.5 16.653M14.625 7.875C14.625 10.3603 12.6103 12.375 10.125 12.375C7.63972 12.375 5.625 10.3603 5.625 7.875C5.625 5.38972 7.63972 3.375 10.125 3.375C12.6103 3.375 14.625 5.38972 14.625 7.875Z" stroke="#2B3674" stroke-width="2" stroke-linecap="round" stroke-linejoin="round"/>
</g>
</svg>
